<svg xmlns="http://www.w3.org/2000/svg" width="35.936" height="35.936" viewBox="0 0 35.936 35.936">
  <g id="Group_342" data-name="Group 342" transform="translate(-15664 7292.55)">
    <circle id="Ellipse_84" data-name="Ellipse 84" cx="17.968" cy="17.968" r="17.968" transform="translate(15664 -7292.55)" fill="none"/>
    <g id="Group_188" data-name="Group 188" transform="translate(15673.005 -7283.317)">
      <path id="Path_1106" data-name="Path 1106" d="M-1151.956,2185.81c2.394,0,2.677,0,3.62.053a4.96,4.96,0,0,1,1.664.309,2.969,2.969,0,0,1,1.709,1.706,4.954,4.954,0,0,1,.3,1.656c.042.946.053,1.229.053,3.62s0,2.677-.053,3.62a4.958,4.958,0,0,1-.309,1.664,2.97,2.97,0,0,1-1.7,1.7,4.959,4.959,0,0,1-1.664.309c-.937.059-1.221.059-3.623.059s-2.677,0-3.62-.053a4.972,4.972,0,0,1-1.664-.309,2.97,2.97,0,0,1-1.7-1.7,4.964,4.964,0,0,1-.312-1.667c-.042-.946-.053-1.229-.053-3.62s0-2.677.053-3.62a4.965,4.965,0,0,1,.317-1.659,2.968,2.968,0,0,1,1.7-1.7,4.949,4.949,0,0,1,1.664-.309c.946-.042,1.229-.053,3.62-.053m0-1.614c-2.433,0-2.739,0-3.7.053a6.577,6.577,0,0,0-2.175.415,4.582,4.582,0,0,0-2.621,2.621,6.576,6.576,0,0,0-.415,2.175c-.045.957-.053,1.26-.053,3.7s0,2.739.053,3.7a6.577,6.577,0,0,0,.415,2.175,4.584,4.584,0,0,0,2.621,2.621,6.589,6.589,0,0,0,2.175.415c.957.045,1.26.053,3.7.053s2.739,0,3.7-.053a6.588,6.588,0,0,0,2.175-.415,4.584,4.584,0,0,0,2.621-2.621,6.576,6.576,0,0,0,.418-2.175c.045-.957.053-1.26.053-3.7s0-2.739-.053-3.7a6.573,6.573,0,0,0-.415-2.175,4.582,4.582,0,0,0-2.621-2.621,6.575,6.575,0,0,0-2.175-.415c-.957-.045-1.26-.053-3.7-.053Z" transform="translate(1160.91 -2184.202)"/>
      <path id="Path_1107" data-name="Path 1107" d="M-1140.8,2199.712a4.6,4.6,0,0,0-4.6,4.6,4.6,4.6,0,0,0,4.6,4.6,4.6,4.6,0,0,0,4.6-4.6h0A4.6,4.6,0,0,0-1140.8,2199.712Zm0,7.577a2.986,2.986,0,0,1-2.977-2.994,2.986,2.986,0,0,1,2.994-2.977,2.986,2.986,0,0,1,2.977,2.994v0a2.986,2.986,0,0,1-2.986,2.986h-.008Z" transform="translate(1149.752 -2195.36)"/>
      <circle id="Ellipse_85" data-name="Ellipse 85" cx="1.075" cy="1.075" r="1.075" transform="translate(12.67 3.095)"/>
    </g>
  </g>
<link xmlns=""/></svg>