<?xml version="1.0" standalone="no"?>
<!DOCTYPE svg PUBLIC "-//W3C//DTD SVG 20010904//EN"
 "http://www.w3.org/TR/2001/REC-SVG-20010904/DTD/svg10.dtd">
<svg version="1.0" xmlns="http://www.w3.org/2000/svg"
 width="430.000000pt" height="581.000000pt" viewBox="0 0 430.000000 581.000000"
 preserveAspectRatio="xMidYMid meet">

<g transform="translate(0.000000,581.000000) scale(0.100000,-0.100000)"
fill="#000000" stroke="none">
<path d="M1885 5225 c-172 -31 -395 -137 -508 -242 -42 -39 -97 -106 -97 -118
0 -3 -12 -22 -27 -41 -36 -48 -73 -123 -73 -149 0 -11 -4 -25 -8 -30 -15 -17
-50 -127 -57 -180 -16 -109 -6 -418 20 -605 10 -78 37 -194 47 -207 12 -15 4
-43 -12 -43 -6 0 -21 11 -34 25 -29 31 -86 45 -86 21 0 -9 8 -16 20 -16 11 0
38 -12 59 -27 31 -21 40 -35 41 -56 0 -16 -3 -27 -7 -25 -27 13 -61 27 -75 32
-12 3 -18 16 -18 34 0 20 -5 29 -16 29 -13 0 -15 -8 -10 -48 4 -29 2 -50 -4
-54 -13 -8 -13 -40 0 -86 18 -63 69 -34 70 39 0 25 4 32 19 32 21 0 37 -32 25
-51 -3 -6 -2 -14 4 -18 7 -4 7 -22 2 -51 -9 -49 -6 -62 14 -54 13 5 36 -54 36
-95 0 -20 -4 -22 -30 -16 -27 6 -30 4 -30 -17 0 -13 4 -28 10 -34 5 -5 6 -15
0 -23 -7 -12 -11 -12 -24 -2 -9 8 -16 20 -16 27 0 8 -4 14 -9 14 -5 0 -12 8
-14 18 -4 16 -5 16 -6 -1 0 -10 17 -55 38 -100 21 -45 44 -95 50 -110 l11 -28
29 20 c15 11 31 18 35 14 9 -10 7 40 -3 56 -5 8 -21 15 -37 17 -34 4 -49 18
-41 39 6 14 9 14 36 0 38 -19 41 -19 41 2 0 23 13 5 28 -37 14 -43 54 -234 57
-275 1 -16 4 -37 7 -45 34 -94 49 -193 47 -315 -1 -71 -2 -155 -2 -185 -1 -74
18 -132 92 -279 60 -121 148 -258 158 -247 3 3 -11 40 -31 82 -27 53 -35 79
-27 87 7 7 5 14 -7 24 -9 7 -12 13 -7 12 22 -3 35 1 35 12 0 5 -4 7 -10 4 -6
-3 -7 1 -4 10 6 14 8 14 24 0 9 -8 19 -12 23 -9 3 4 12 0 20 -7 14 -15 17 -21
17 -41 0 -9 4 -8 10 2 9 13 13 12 29 -8 11 -12 23 -22 28 -21 22 4 34 -3 31
-17 -2 -10 4 -19 12 -21 13 -4 13 -3 0 6 -9 7 -10 11 -3 11 6 0 15 -5 18 -10
5 -8 11 -8 19 -1 7 6 25 8 40 5 18 -3 25 -1 21 6 -3 5 -1 10 5 10 7 0 9 8 5
19 -7 23 14 39 26 20 8 -12 11 -12 20 1 8 11 12 12 16 3 2 -7 11 -13 19 -13 9
0 12 -4 9 -10 -3 -6 1 -7 9 -4 9 3 16 10 16 15 0 5 5 9 11 9 5 0 7 -5 3 -11
-5 -8 -1 -8 14 0 12 6 23 15 26 20 3 5 35 14 71 21 36 7 65 16 65 21 0 5 8 9
18 9 11 0 34 7 52 16 18 9 57 17 86 18 30 0 54 5 54 9 0 4 7 10 16 14 33 12
179 173 222 243 11 19 50 65 86 102 35 37 68 77 72 90 4 13 18 40 30 60 32 50
30 54 -8 27 -42 -29 -50 -41 -35 -52 8 -6 5 -7 -7 -3 -20 7 -49 -11 -40 -25 3
-5 -2 -6 -10 -3 -9 4 -20 -5 -30 -23 -26 -47 -60 -78 -119 -111 -49 -27 -56
-29 -60 -14 -4 15 -5 15 -6 0 0 -10 -8 -18 -17 -18 -9 0 -12 -5 -8 -12 4 -6 3
-8 -4 -5 -16 11 -44 -4 -38 -20 3 -8 0 -13 -7 -12 -6 1 -20 -2 -31 -6 -11 -5
-26 -4 -36 2 -13 9 -19 7 -29 -9 -9 -14 -20 -19 -37 -15 -13 2 -27 0 -30 -5
-4 -6 -9 -5 -14 2 -5 9 -13 9 -26 2 -13 -7 -26 -6 -46 4 -15 8 -28 11 -28 6 0
-11 -48 -3 -56 9 -3 5 -17 9 -32 9 -32 1 -67 24 -57 40 3 6 -8 24 -25 40 -17
16 -29 34 -25 40 3 5 1 10 -4 10 -14 0 -10 62 4 72 9 7 -16 13 -38 9 -4 -1
-10 6 -13 14 -4 10 4 24 22 38 31 24 45 27 120 27 l50 0 -1 40 c-3 74 -1 71
-50 69 -56 -3 -73 10 -57 46 7 14 12 39 12 55 l0 30 68 0 c154 1 378 13 394
21 10 5 28 7 41 3 28 -6 44 20 26 42 -15 19 -34 18 -66 -3 -22 -14 -51 -17
-202 -16 -188 2 -211 4 -246 27 -12 8 -31 12 -42 10 -17 -5 -20 -1 -19 25 1
17 4 31 8 31 4 0 24 18 44 40 37 40 102 80 130 80 8 0 17 7 20 15 4 8 17 15
30 15 24 0 35 20 12 20 -8 0 -6 5 4 10 18 11 88 9 88 -2 0 -3 -15 -12 -32 -18
-22 -9 -28 -14 -17 -17 22 -6 68 14 76 32 8 23 -35 65 -66 65 -15 0 -43 -14
-64 -31 -27 -22 -42 -29 -55 -23 -9 5 -30 8 -47 9 -24 0 -36 9 -62 49 -18 26
-33 58 -33 71 0 24 26 82 46 102 22 23 37 264 21 353 -8 42 -6 47 27 84 28 31
33 42 25 57 -9 18 -10 18 -30 -2 -15 -15 -24 -18 -32 -10 -6 6 -17 11 -25 11
-7 0 -34 17 -60 38 -48 39 -111 72 -147 79 -23 4 -96 52 -108 70 -4 7 -24 15
-45 19 -43 8 -72 30 -72 56 0 10 -4 18 -10 18 -5 0 -10 8 -10 18 0 14 2 15 10
2 8 -13 10 -13 10 2 0 9 -5 18 -11 20 -10 3 -19 59 -20 118 -1 14 8 30 20 39
20 13 31 48 11 36 -18 -11 -11 11 9 29 11 10 25 15 30 11 10 -5 15 7 12 28 0
4 4 7 9 7 6 0 21 10 33 23 12 13 31 27 42 31 16 6 17 9 5 17 -12 9 -12 10 2 5
10 -3 36 1 57 9 22 8 48 13 58 13 29 -1 106 13 125 23 9 5 59 12 110 16 67 4
96 11 105 22 7 9 13 12 13 8 0 -4 9 -3 21 3 30 17 53 20 162 25 54 3 103 7
108 11 6 3 20 7 32 9 12 1 34 6 49 10 21 5 29 3 34 -8 3 -10 17 -15 37 -15 17
1 33 -4 35 -10 2 -7 16 -12 32 -12 16 0 35 -7 44 -15 8 -8 18 -15 23 -15 24
-1 78 -73 68 -90 -4 -6 0 -10 8 -10 8 0 18 -8 22 -17 11 -27 15 -193 5 -193
-5 0 -7 -7 -4 -15 3 -8 0 -47 -7 -87 -14 -85 -14 -109 1 -118 12 -7 3 -40 -11
-40 -5 0 -11 0 -14 0 -3 0 -5 3 -4 6 1 11 -24 24 -47 24 -11 0 -29 -9 -39 -20
-16 -17 -20 -18 -38 -5 -25 18 -108 20 -125 3 -6 -6 -26 -13 -44 -15 -18 -2
-37 -8 -42 -13 -6 -6 -23 -10 -38 -10 -16 0 -31 -7 -34 -15 -4 -9 -19 -15 -35
-15 -16 0 -46 -11 -67 -23 -20 -13 -42 -22 -49 -20 -6 2 -23 -16 -38 -41 -15
-25 -30 -46 -35 -46 -4 0 -4 -19 2 -42 5 -24 11 -52 12 -63 1 -11 8 -33 14
-48 7 -16 10 -32 7 -37 -3 -5 -1 -11 4 -14 5 -3 11 1 15 9 3 8 1 17 -4 20 -17
11 -11 21 15 23 21 1 28 -6 45 -46 32 -72 34 -75 81 -99 47 -24 98 -27 106 -6
5 12 23 22 96 51 15 7 27 16 27 21 0 5 12 3 28 -5 37 -19 49 -18 78 11 14 14
31 25 38 25 23 0 26 12 8 35 -10 12 -17 35 -17 51 1 24 7 30 30 32 21 3 35 -4
56 -27 31 -35 56 -40 66 -13 9 23 33 47 33 32 0 -6 4 -9 9 -6 11 7 25 -138 30
-316 1 -27 6 -38 16 -38 8 0 15 5 15 12 0 9 3 9 12 0 14 -14 58 -16 58 -3 0 6
-4 12 -9 16 -5 3 -9 19 -9 36 1 27 -9 42 -35 51 -4 2 -8 38 -10 81 -2 65 1 81
15 91 10 7 15 16 12 19 -4 3 3 43 14 89 11 46 23 101 26 123 3 22 11 65 17 95
27 138 43 390 29 475 -4 28 -11 73 -15 100 -4 28 -14 57 -21 65 -38 42 -64 79
-64 93 0 8 -9 26 -20 39 -10 14 -17 28 -14 31 3 2 -6 14 -20 25 -15 11 -26 24
-26 30 0 5 -20 20 -45 33 -25 13 -45 30 -45 36 0 7 -11 15 -25 19 -14 3 -25
13 -25 21 0 10 -6 13 -16 9 -11 -4 -21 7 -37 44 -12 27 -26 50 -31 50 -5 0
-25 18 -43 40 -40 46 -160 108 -263 135 -84 23 -449 29 -555 10z m710 -1455
c3 -5 -3 -10 -15 -10 -12 0 -18 5 -15 10 3 6 10 10 15 10 5 0 12 -4 15 -10z
m322 -82 c-3 -8 -6 -5 -6 6 -1 11 2 17 5 13 3 -3 4 -12 1 -19z m-1099 -44 c29
-20 28 -36 -5 -51 -30 -14 -67 -17 -61 -5 3 4 11 22 18 40 16 37 18 37 48 16z
m641 -48 c-3 -3 -21 0 -41 7 l-36 13 26 23 26 23 15 -31 c8 -17 12 -33 10 -35z
m185 48 c3 -9 6 -17 6 -20 0 -9 -82 -55 -88 -49 -4 4 1 11 11 16 9 6 24 23 32
39 17 33 30 38 39 14z m-1563 -147 c-10 -9 -11 -8 -5 6 3 10 9 15 12 12 3 -3
0 -11 -7 -18z m538 -27 c42 0 107 7 144 15 80 17 83 16 114 -9 16 -14 20 -23
12 -32 -7 -8 -7 -14 1 -19 6 -4 10 -53 9 -131 -1 -98 -4 -126 -15 -131 -8 -3
-11 -9 -8 -14 3 -5 -1 -9 -8 -9 -7 -1 -23 -9 -35 -19 -24 -20 -32 -38 -11 -25
7 4 8 3 4 -4 -4 -7 -13 -12 -21 -12 -7 0 -16 -7 -19 -16 -3 -9 -12 -14 -19
-11 -9 3 -13 -4 -13 -22 1 -21 -7 -30 -42 -48 -24 -12 -49 -28 -55 -36 -16
-19 -45 -28 -52 -17 -4 6 -20 10 -37 10 -21 0 -31 6 -35 20 -3 12 -14 20 -27
20 -15 0 -17 3 -7 9 9 6 10 11 2 15 -6 4 -9 12 -6 17 4 5 1 9 -4 9 -6 0 -11
11 -11 25 0 14 -5 24 -12 23 -8 -2 -15 19 -20 61 -4 35 -10 71 -14 80 -3 9 -8
45 -11 81 -2 36 -5 76 -7 90 -4 31 10 69 32 91 15 14 22 14 56 3 21 -8 73 -14
115 -14z m-364 -289 c3 -5 1 -12 -5 -16 -5 -3 -10 1 -10 9 0 18 6 21 15 7z
m441 -388 c-3 -8 -1 -11 4 -8 15 9 12 -2 -7 -31 -12 -19 -18 -22 -24 -12 -5 7
-3 16 4 20 9 6 9 10 -2 17 -19 12 -6 42 14 35 9 -4 14 -13 11 -21z m22 -45
c-2 -6 -10 -14 -16 -16 -7 -2 -10 2 -6 12 7 18 28 22 22 4z m-91 -780 c-3 -8
-6 -5 -6 6 -1 11 2 17 5 13 3 -3 4 -12 1 -19z"/>
<path d="M3186 3655 c-18 -19 -20 -31 -6 -40 6 -3 10 -14 10 -24 0 -10 7 -24
15 -31 13 -11 15 -6 15 36 0 63 -11 82 -34 59z"/>
<path d="M2990 3160 c0 -5 5 -10 10 -10 6 0 10 5 10 10 0 6 -4 10 -10 10 -5 0
-10 -4 -10 -10z"/>
<path d="M2850 2609 c0 -5 5 -7 10 -4 6 3 10 8 10 11 0 2 -4 4 -10 4 -5 0 -10
-5 -10 -11z"/>
<path d="M2764 2135 c-7 -11 -15 -36 -19 -55 -4 -19 -29 -81 -56 -136 -27 -56
-49 -105 -49 -108 0 -14 -100 -161 -147 -214 -63 -73 -113 -137 -113 -145 0
-5 -9 -23 -21 -40 -47 -71 150 149 231 257 91 122 147 226 170 315 23 90 25
164 4 126z"/>
<path d="M2300 1302 c0 -6 5 -12 11 -14 6 -2 12 -19 13 -37 1 -19 8 -37 19
-42 19 -11 22 -40 6 -56 -6 -6 -9 -17 -7 -24 3 -8 11 -5 26 11 25 27 22 50
-12 120 -20 40 -56 67 -56 42z"/>
<path d="M1920 1250 c-13 -9 -13 -10 0 -10 8 0 22 5 30 10 13 9 13 10 0 10 -8
0 -22 -5 -30 -10z"/>
<path d="M1843 1160 c-39 -45 -40 -55 -12 -70 30 -17 44 0 47 59 2 28 2 51 0
51 -2 0 -18 -18 -35 -40z"/>
<path d="M1900 995 c0 -15 31 -77 36 -72 8 7 -18 77 -28 77 -4 0 -8 -2 -8 -5z"/>
</g>
</svg>
